<?xml version="1.0" encoding="utf-8"?>
<!-- Generator: Adobe Illustrator 13.0.0, SVG Export Plug-In . SVG Version: 6.00 Build 14948)  -->
<!DOCTYPE svg PUBLIC "-//W3C//DTD SVG 1.1//EN" "http://www.w3.org/Graphics/SVG/1.1/DTD/svg11.dtd">
<svg version="1.1" id="Layer_1" xmlns="http://www.w3.org/2000/svg" xmlns:xlink="http://www.w3.org/1999/xlink" x="0px" y="0px"
	 width="90px" height="90px" viewBox="54.5 54.5 90 90" enable-background="new 54.5 54.5 90 90" xml:space="preserve">
<g>
	<polygon fill="#E44D26" points="73.922,119.584 68.119,54.5 131.881,54.5 126.072,119.574 99.961,126.813 	"/>
	<polygon fill="#F16529" points="100,121.279 121.099,115.43 126.063,59.822 100,59.822 	"/>
	<polygon fill="#EBEBEB" points="100,83.96 89.438,83.96 88.708,75.787 100,75.787 100,67.804 99.972,67.804 79.984,67.804 
		80.175,69.946 82.137,91.943 100,91.943 	"/>
	<polygon fill="#EBEBEB" points="100,104.691 99.965,104.701 91.075,102.301 90.507,95.934 86.187,95.934 82.494,95.934 
		83.612,108.467 99.963,113.006 100,112.996 	"/>
	<polygon fill="#FFFFFF" points="99.972,83.96 99.972,91.943 109.802,91.943 108.875,102.295 99.972,104.697 99.972,113.002 
		116.337,108.467 116.457,107.119 118.332,86.104 118.527,83.96 116.376,83.96 	"/>
	<polygon fill="#FFFFFF" points="99.972,67.804 99.972,72.762 99.972,75.767 99.972,75.787 119.228,75.787 119.228,75.787 
		119.253,75.787 119.414,73.992 119.777,69.946 119.969,67.804 	"/>
</g>
<title>HTML5 Logo</title>
<g>
	<path d="M74.052,132.363h4.056v4.008h3.711v-4.008h4.057V144.5h-4.057v-4.064h-3.71v4.064h-4.057V132.363L74.052,132.363z"/>
	<path d="M91.21,136.389h-3.571v-4.025h11.201v4.025h-3.573v8.111H91.21V136.389L91.21,136.389z"/>
	<path d="M100.617,132.363h4.23l2.602,4.265l2.599-4.265h4.231V144.5h-4.04v-6.016l-2.79,4.315h-0.07l-2.793-4.315v6.016h-3.969
		V132.363z"/>
	<path d="M116.299,132.363h4.058v8.125h5.704v4.012h-9.762V132.363z"/>
</g>
</svg>
