<?xml version="1.0" encoding="utf-8"?>
<!-- Generator: Adobe Illustrator 13.0.0, SVG Export Plug-In . SVG Version: 6.00 Build 14948)  -->
<svg version="1.2" baseProfile="tiny" id="Layer_1" xmlns="http://www.w3.org/2000/svg" xmlns:xlink="http://www.w3.org/1999/xlink"
	 x="0px" y="0px" width="26px" height="20px" viewBox="0 0 26 20" xml:space="preserve">
<rect x="1.125" y="1.313" fill="#FFFFFF" width="23.563" height="17.375"/>
<g>
	<g>
		<linearGradient id="SVGID_1_" gradientUnits="userSpaceOnUse" x1="12.9995" y1="0" x2="12.9995" y2="20.0005">
			<stop  offset="0" style="stop-color:#72B641"/>
			<stop  offset="1" style="stop-color:#009023"/>
		</linearGradient>
		<path fill="url(#SVGID_1_)" d="M22.826,0H3.179C1.426,0,0,1.44,0,3.214v13.57C0,18.558,1.426,20,3.179,20h19.642
			C24.574,20,26,18.558,26,16.784V3.22C26.006,1.446,24.58,0,22.826,0z M24.553,16.784c0,0.963-0.774,1.745-1.727,1.745H3.179
			c-0.952,0-1.727-0.782-1.727-1.745V3.22c0-0.963,0.774-1.746,1.727-1.746h19.642c0.952,0,1.727,0.783,1.727,1.746v13.564H24.553z"
			/>
		<linearGradient id="SVGID_2_" gradientUnits="userSpaceOnUse" x1="13.0034" y1="2.7813" x2="13.0034" y2="17.2261">
			<stop  offset="0" style="stop-color:#72B641"/>
			<stop  offset="1" style="stop-color:#009023"/>
		</linearGradient>
		<path fill="url(#SVGID_2_)" d="M16.397,9.83l6.358-5.763c0.296-0.271,0.323-0.733,0.054-1.038c-0.268-0.3-0.726-0.327-1.027-0.055
			l-8.769,7.954l-1.711-1.544c-0.004-0.005-0.01-0.011-0.01-0.017c-0.038-0.037-0.075-0.069-0.118-0.103L4.212,2.969
			C3.911,2.697,3.454,2.724,3.185,3.029c-0.27,0.305-0.242,0.767,0.059,1.038l6.435,5.813l-6.408,6.062
			c-0.29,0.277-0.306,0.739-0.032,1.04c0.146,0.151,0.339,0.233,0.533,0.233c0.178,0,0.355-0.067,0.495-0.198l6.504-6.147
			l1.765,1.593c0.14,0.125,0.312,0.185,0.484,0.185c0.172,0,0.35-0.064,0.483-0.19l1.813-1.642l6.467,6.21
			c0.141,0.137,0.323,0.2,0.501,0.2c0.193,0,0.381-0.077,0.526-0.229c0.275-0.292,0.265-0.762-0.026-1.039L16.397,9.83z"/>
	</g>
</g>
</svg>
