<?xml version="1.0" encoding="utf-8"?>
<!-- Generator: Adobe Illustrator 13.0.0, SVG Export Plug-In . SVG Version: 6.00 Build 14948)  -->
<svg version="1.2" baseProfile="tiny" id="Layer_1" xmlns="http://www.w3.org/2000/svg" xmlns:xlink="http://www.w3.org/1999/xlink"
	 x="0px" y="0px" width="298px" height="68px" viewBox="0 0 298 68" xml:space="preserve">
<g>
	<g>
		<path fill="#646464" d="M87.214,55.945c-1.9,0-3.875-1.062-3.875-4.563c0-4.19,2.832-4.936,4.023-4.936s2.365,0.131,3.259,1.099
			l-1.006,1.341c-0.596-0.688-1.136-1.136-1.993-1.136c-0.913,0-1.844,0.596-1.844,3.167c0,2.756,1.099,3.464,2.086,3.464
			c0.745,0,1.546-0.354,2.235-0.987l0.577,1.08C89.412,55.722,88.257,55.945,87.214,55.945z"/>
		<path fill="#646464" d="M96.287,55.982c-1.379,0-4.303-0.745-4.303-4.768c0-3.986,3.092-4.769,4.303-4.769
			c1.527,0,4.396,0.503,4.396,4.769C100.683,54.362,98.447,55.982,96.287,55.982z M96.287,47.75c-0.932,0-1.863,0.559-1.863,3.502
			c0,3.036,1.21,3.427,1.956,3.427c0.727,0,1.863-0.372,1.863-3.501C98.243,48.7,97.572,47.75,96.287,47.75z"/>
		<path fill="#646464" d="M106.273,55.759h-3.483v-9.164h3.986c1.527,0,3.297,0.224,3.297,2.086c0,1.527-1.435,2.068-2.143,2.254
			v0.112c1.155,0.168,2.533,0.521,2.533,2.067C110.464,55.274,108.118,55.759,106.273,55.759z M106.199,47.899h-1.062v2.663h0.67
			c1.565,0,1.956-0.596,1.956-1.453C107.763,48.067,106.962,47.899,106.199,47.899z M106.05,51.681h-0.913v2.7
			c0,0,0.466,0.075,1.285,0.075c1.285,0,1.508-0.82,1.508-1.436C107.931,51.959,107.261,51.681,106.05,51.681z"/>
		<path fill="#646464" d="M116.464,55.945c-0.559,0-1.229-0.112-1.62-0.373v4.378h-2.347V48.905c0-1.024-0.093-1.975-0.13-2.217
			l2.31-0.168l0.168,1.099c0.279-0.465,0.987-1.21,2.458-1.21c1.508,0,3.501,0.949,3.501,4.434
			C120.804,54.344,118.718,55.945,116.464,55.945z M116.669,47.899c-1.658,0-1.825,1.769-1.825,2.85v2.868
			c0,0.596,0.633,1.043,1.416,1.043c1.453,0,2.104-1.117,2.104-3.669C118.364,48.905,117.824,47.899,116.669,47.899z"/>
		<path fill="#646464" d="M126.636,46.446c2.403,0,3.707,1.322,3.707,4.284v0.559h-5.252c0,2.775,1.397,3.092,2.272,3.092
			c0.801,0,1.639-0.336,2.235-0.987l0.578,1.08c-1.155,1.229-2.421,1.472-3.464,1.472c-1.9,0-4.061-1.248-4.061-4.75
			C122.65,47.154,125.351,46.446,126.636,46.446z M127.958,49.668c0-0.539-0.167-1.918-1.322-1.918
			c-0.931,0-1.434,0.615-1.546,2.291h2.868V49.668z"/>
		<path fill="#646464" d="M140.403,55.759l-0.093-6.481l-2.794,5.681h-0.447l-2.869-5.681v6.481h-1.732l0.28-9.164h2.458
			l2.552,5.066l2.552-5.066h2.253l0.187,9.164H140.403z"/>
		<path fill="#646464" d="M148.807,46.446c2.403,0,3.707,1.322,3.707,4.284v0.559h-5.252c0,2.775,1.397,3.092,2.272,3.092
			c0.8,0,1.638-0.336,2.235-0.987l0.577,1.08c-1.154,1.229-2.421,1.472-3.464,1.472c-1.9,0-4.061-1.248-4.061-4.75
			C144.821,47.154,147.522,46.446,148.807,46.446z M150.129,49.668c0-0.539-0.167-1.918-1.322-1.918
			c-0.931,0-1.434,0.615-1.546,2.291h2.868V49.668z"/>
		<path fill="#646464" d="M160.133,55.759v-4.098h-3.146v4.098h-2.348v-9.164h2.348v3.763h3.146v-3.763h2.348v9.164H160.133z"/>
		<path fill="#646464" d="M170.492,55.759v-4.098h-3.148v4.098h-2.346v-9.164h2.346v3.763h3.148v-3.763h2.348v9.164H170.492z"/>
		<path fill="#646464" d="M178.766,55.759h-3.428v-9.164h2.348v3.261c0,0,0.596-0.131,1.303-0.131c2.758,0,3.818,1.118,3.818,2.868
			C182.807,54.939,180.627,55.759,178.766,55.759z M178.766,50.991c-0.652,0-1.08,0.093-1.08,0.093v3.223
			c0,0,0.316,0.074,1.006,0.074c1.676,0,1.75-1.229,1.75-1.881C180.441,51.644,179.957,50.991,178.766,50.991z M183.795,55.759
			v-9.164h2.346v9.164H183.795z"/>
		<path fill="#646464" d="M194.414,55.759v-5.997l-3.799,5.997h-1.9v-9.164h2.346v5.998l3.801-5.998h1.9v9.164H194.414z
			 M192.961,46.13c-1.08,0-2.645-0.392-2.645-2.533h1.396c0,0.689,0.504,1.155,1.248,1.155c0.746,0,1.248-0.373,1.248-1.155h1.398
			C195.607,45.496,194.041,46.13,192.961,46.13z"/>
		<path fill="#646464" d="M211.182,55.759h-3.482v-9.164h3.986c1.527,0,3.297,0.224,3.297,2.086c0,1.527-1.436,2.068-2.143,2.254
			v0.112c1.154,0.168,2.533,0.521,2.533,2.067C215.373,55.274,213.025,55.759,211.182,55.759z M211.107,47.899h-1.063v2.663h0.672
			c1.564,0,1.955-0.596,1.955-1.453C212.672,48.067,211.871,47.899,211.107,47.899z M210.959,51.681h-0.914v2.7
			c0,0,0.467,0.075,1.287,0.075c1.285,0,1.508-0.82,1.508-1.436C212.84,51.959,212.17,51.681,210.959,51.681z"/>
		<path fill="#646464" d="M220.777,46.446c2.402,0,3.705,1.322,3.705,4.284v0.559h-5.252c0,2.775,1.398,3.092,2.273,3.092
			c0.801,0,1.639-0.336,2.234-0.987l0.578,1.08c-1.156,1.229-2.422,1.472-3.465,1.472c-1.9,0-4.061-1.248-4.061-4.75
			C216.791,47.154,219.492,46.446,220.777,46.446z M222.1,49.668c0-0.539-0.168-1.918-1.322-1.918c-0.932,0-1.434,0.615-1.547,2.291
			h2.869V49.668z"/>
		<path fill="#646464" d="M230.428,55.982c-2.291,0-4.248-1.359-4.248-5.551c0-2.626,0.168-6.295,3.316-7.674
			c1.063-0.466,3.391-0.727,4.061-1.304v2.143c-0.596,0.745-2.924,0.875-4.004,1.396c-1.844,0.895-2.031,2.348-2.125,3.446h0.113
			c0.744-1.136,1.824-1.788,3.482-1.788c1.602,0,3.762,0.987,3.762,4.246C234.785,54.344,232.514,55.982,230.428,55.982z
			 M230.482,47.955c-0.371,0-1.881-0.074-1.881,2.942c0,2.646,0.895,3.781,1.9,3.781c1.322,0,1.826-1.117,1.826-3.39
			C232.328,48.122,230.967,47.955,230.482,47.955z"/>
		<path fill="#646464" d="M236.26,51.755v-1.621h4.117v1.621H236.26z"/>
		<path fill="#646464" d="M249.113,57.957l-0.336-2.198h-5.904l-0.26,2.161h-1.342v-3.539h0.373c0.781,0,1.248-1.527,1.471-2.757
			c0.148-0.875,0.262-2.123,0.299-2.905l0.092-2.124h6.055v7.786h0.893v3.576H249.113z M247.213,47.974h-2.066l-0.205,2.272
			c-0.15,1.75-0.447,3.65-1.08,4.135h3.352V47.974z"/>
		<path fill="#646464" d="M257.721,55.759v-5.997l-3.799,5.997h-1.9v-9.164h2.346v5.998l3.801-5.998h1.898v9.164H257.721z"/>
		<path fill="#646464" d="M264.895,47.75c-0.857,0-1.396,0.447-1.992,1.136l-1.006-1.341c1.006-0.838,2.291-1.099,3.26-1.099
			c1.191,0,3.146,0.224,3.146,2.18c0,1.49-1.285,2.048-1.918,2.291v0.148c1.08,0.204,2.16,0.615,2.16,2.067
			c0,1.937-1.973,2.85-4.061,2.85c-1.285,0-2.271-0.391-2.738-0.708l0.635-1.452c0.521,0.391,1.303,0.856,2.104,0.856
			c1.305,0,1.51-1.006,1.51-1.639c0-0.597-0.168-1.396-1.789-1.396h-0.727v-1.118h0.803c1.377,0,1.582-0.932,1.582-1.509
			C265.863,48.03,265.359,47.75,264.895,47.75z"/>
		<path fill="#646464" d="M275.645,55.759c-0.168-0.354-0.318-1.062-0.355-1.396c-0.893,1.396-2.086,1.676-3.035,1.676
			c-1.322,0-2.459-0.894-2.459-2.794c0-2.756,2.422-3.091,3.818-3.166l1.584-0.074v-0.56c0-1.545-0.746-1.694-1.584-1.694
			c-0.67,0-1.676,0.466-2.57,1.434l-0.689-1.676c0.764-0.503,2.012-1.062,3.613-1.062c2.813,0,3.576,1.229,3.576,3.092v1.267
			c0,2.422-0.111,4.023,0.373,4.954H275.645z M275.197,51.158l-1.23,0.057c-1.191,0.055-1.713,0.577-1.713,1.862
			c0,0.707,0.391,1.285,1.154,1.285c1.51,0,1.789-1.807,1.789-2.403V51.158z"/>
		<path fill="#646464" d="M285.557,55.759v-5.997l-3.801,5.997h-1.9v-9.164h2.348v5.998l3.799-5.998h1.9v9.164H285.557z
			 M284.104,46.13c-1.082,0-2.646-0.392-2.646-2.533h1.398c0,0.689,0.502,1.155,1.248,1.155c0.744,0,1.246-0.373,1.246-1.155h1.398
			C286.748,45.496,285.182,46.13,284.104,46.13z"/>
		<path fill="#646464" d="M295.652,55.759v-4.098h-3.146v4.098h-2.348v-9.164h2.348v3.763h3.146v-3.763H298v9.164H295.652z"/>
	</g>
	<g>
		<path d="M107.636,35.281h-5.242l-5.356-17.35l-6.223,17.35h-5.394L81.385,8.238h6.336l2.376,18.218l6.45-18.218h3.96l5.394,18.104
			l3.131-18.104h4.602L107.636,35.281z"/>
		<path d="M116.353,35.281V8.238h14.37v3.696h-8.109v7.316h6.525v3.546h-6.525v8.788h8.411v3.696H116.353z"/>
		<path d="M141.677,35.621c-2.753,0-6.601-0.528-7.656-0.717V8.616c0,0,4.601-0.566,8.599-0.566c7.618,0,9.769,3.47,9.769,6.978
			c0,2.074-0.527,4.525-4.979,6.147v0.265c4.225,1.019,5.619,3.546,5.619,5.997C153.029,31.887,150.163,35.621,141.677,35.621z
			 M142.281,11.746c-1.169,0-1.622,0.113-1.999,0.188v8.146h1.735c3.319,0,4.035-2.073,4.035-4.487
			C146.052,13.066,144.544,11.746,142.281,11.746z M142.017,23.212h-1.735v8.563c0.377,0.074,1.169,0.15,2.338,0.15
			c1.924,0,3.847-1.509,3.847-4.488C146.467,24.721,145.109,23.212,142.017,23.212z"/>
		<path d="M169.262,35.281l-1.924-7.203h-6.261l-2.075,7.203h-4.715l8.826-27.043h4.941l8.26,27.043H169.262z M164.207,16.461
			l-2.225,8.298h4.564L164.207,16.461z"/>
		<path d="M178.99,35.281V8.238h6.262v23.347h8.109v3.696H178.99z"/>
		<path d="M203.924,11.935v23.347h-6.262V11.935h-6.525V8.238h19.313v3.696H203.924z"/>
		<path d="M223.732,35.281l-1.924-7.203h-6.26l-2.074,7.203h-4.715l8.826-27.043h4.941l8.26,27.043H223.732z M218.68,16.461
			l-2.227,8.298h4.564L218.68,16.461z"/>
		<path d="M241.447,25.853v9.429h-6.262v-9.429l-7.014-17.614h7.053l4.488,12.635l4.262-12.635h4.979L241.447,25.853z"/>
		<path d="M250.648,35.848c-1.66,0-2.867-1.169-2.867-2.98c0-1.734,1.207-2.979,2.867-2.979c1.547,0,2.867,1.169,2.867,2.979
			C253.516,34.715,252.195,35.848,250.648,35.848z"/>
		<path d="M270.043,35.281l-3.094-8.071c-0.678-1.773-1.318-2.979-2.865-2.979h-0.416v11.051h-6.26V8.616
			c0,0,4.299-0.566,8.223-0.566c7.617,0,9.957,3.658,9.957,7.77c0,3.96-3.057,6.412-5.545,7.016
			c1.057,0.565,1.773,1.697,3.018,4.375l3.695,8.071H270.043z M265.291,11.708c-1.02,0-1.094,0.113-1.623,0.189v9.24h1.207
			c2.98,0,4.678-2.377,4.678-4.979C269.553,14.085,269.063,11.708,265.291,11.708z"/>
		<path d="M288.346,35.848c-6.225,0-9.203-3.057-9.203-8.675V8.238h6.26v18.331c0,2.074,0.717,5.016,4.074,5.016
			c2.867,0,4.299-1.886,4.299-5.016V8.238H298v18.52C298,32.979,293.814,35.848,288.346,35.848z"/>
	</g>
</g>
<g>
	<linearGradient id="SVGID_1_" gradientUnits="userSpaceOnUse" x1="34" y1="0" x2="34" y2="68.0005">
		<stop  offset="0" style="stop-color:#4FD923"/>
		<stop  offset="1" style="stop-color:#009123"/>
	</linearGradient>
	<path fill-rule="evenodd" fill="url(#SVGID_1_)" d="M34,0C15.225,0,0,15.227,0,34.001C0,52.774,15.225,68,34,68
		c18.773,0,34-15.226,34-33.999C68,15.227,52.773,0,34,0z"/>
	<path fill="#FFFFFF" d="M50.304,38.72l2.63,5.561h-3.035v1.18H67.86v-1.18H56.035l-9.876-21.739h-1.346L35.71,44.28l-0.374,1.18
		h1.404l0.52-1.18l2.259-5.561H50.304z M49.732,37.27h-9.64l4.449-10.549l0.134-0.876h0.204l0.134,0.876L49.732,37.27z"/>
	<polygon fill="#FFFFFF" points="35.727,42.189 35.389,41.249 29.254,22.912 27.874,22.912 21.571,41.18 21.437,42.189 
		21.268,42.189 21.2,41.18 15.167,24.091 18.335,24.091 18.335,22.912 0.758,22.912 0.758,24.091 12.2,24.091 19.818,45.46 
		21.638,45.46 27.604,28.337 27.772,27.327 27.974,27.327 28.143,28.337 33.907,45.46 35.793,45.46 36.323,43.97 	"/>
</g>
</svg>
