<?xml version="1.0" encoding="utf-8"?>
<!-- Generator: Adobe Illustrator 13.0.0, SVG Export Plug-In . SVG Version: 6.00 Build 14948)  -->
<svg version="1.2" baseProfile="tiny" id="Layer_1" xmlns="http://www.w3.org/2000/svg" xmlns:xlink="http://www.w3.org/1999/xlink"
	 x="0px" y="0px" width="200px" height="200px" viewBox="132.5 -29.641 200 200" xml:space="preserve">
<g>
	<path fill="#FFFFFF" d="M153.139,67.253h-7.2v-0.044c-7.526-0.967-8.699-4.572-13.652-13.809h10.103
		c3.387,0,5.198,1.111,6.585,3.136C151.529,60.26,153.144,63.63,153.139,67.253 M165.507,67.252h-7.199
		c-0.004-3.623,1.611-6.993,4.163-10.716c1.387-2.025,3.199-3.136,6.585-3.136h10.104c-4.954,9.235-6.126,12.841-13.653,13.807
		V67.252L165.507,67.252z"/>
	<path fill="#00CC83" d="M132,53.401h10.103c3.387,0,5.198,1.086,6.586,3.065c4.826,6.885,6.303,12.533-0.194,20.959
		c-1.476,1.914-3.101,3.065-6.488,3.065H132c4.954-9.028,6.126-12.552,13.652-13.497v-0.095
		C138.125,65.953,136.953,62.429,132,53.401"/>
	<path fill="#00D6F6" d="M179.447,53.401h-10.103c-3.387,0-5.198,1.086-6.585,3.065c-4.827,6.885-6.304,12.533,0.192,20.959
		c1.477,1.914,3.103,3.065,6.489,3.065h10.006c-4.953-9.028-6.126-12.552-13.651-13.497v-0.095
		C173.321,65.954,174.493,62.429,179.447,53.401"/>
	<path fill="#00BBFF" d="M155.723,54.565c0.972,0,1.759,0.788,1.759,1.759s-0.788,2.181-1.759,2.181
		c-0.971,0-1.758-1.21-1.758-2.181C153.965,55.353,154.752,54.565,155.723,54.565L155.723,54.565z M155.723,60.652
		c2.123-0.024,3.29-1.753,5.185-5.018c1.238-2.135,1.124-5.111-0.544-8.001l-4.64-8.036l-4.64,8.037
		c-1.669,2.89-1.783,5.867-0.545,8.001C152.433,58.899,153.601,60.628,155.723,60.652z"/>
	<path fill="#00D9C0" d="M150.225,78.897c-1.257,2.123-0.811,4.508,0.858,7.397l4.64,8.037l4.641-8.037
		c1.668-2.89,2.114-5.275,0.857-7.397c-1.051-1.775-2.45-3.822-3.323-4.894c-0.728-0.893-1.469-1.298-2.175-1.322
		c-0.705,0.025-1.446,0.43-2.174,1.322C152.677,75.075,151.277,77.122,150.225,78.897"/>
	<path fill="#00BBFF" d="M236.3,76.124l3.603-5.878l3.099-5.152l2.122-4.246c-0.255,1.378-0.42,2.826-0.42,4.25v15.339h6.595V62.732
		c0-0.763,0-1.516,0.001-2.264v-7.057h-2.272c-3.006,0-5.054,1.352-7.021,4.414l-3.495,5.768l-3.104,5.161L233.285,73
		c0.235-1.453,0.42-2.826,0.42-4.249V53.412h-6.596v17.703c0,0.763,0.001,1.516-0.001,2.264v7.058h2.271
		C232.387,80.436,234.333,79.185,236.3,76.124 M256.794,74.257c-1.31,2.06-1.416,3.905,0.077,4.617
		c5.652,2.699,13.433,2.355,17.193,0.03c2.197-1.358,3.374-3.226,3.374-5.846c0-3.726-3.354-5.988-6.785-6.536
		c3.061-0.606,5.909-3.132,5.909-6.279c0-2.145-0.963-3.881-2.885-5.208c-3.856-2.661-12.645-2.573-16.794-0.013
		c-1.376,0.85-0.912,2.421,0.438,4.048c2.948-1.957,12.456-2.533,12.456,1.836c0,2.74-5.026,3.37-7.152,3.37
		c-0.371,0-2.313-0.006-2.601-0.02v4.703c0.1-0.008,0.224-0.021,0.369-0.037c0.309-0.033,2.18-0.052,2.386-0.052
		c1.923,0,4.825,0.358,5.941,1.073c1.116,0.714,1.675,1.65,1.675,2.808c0,1.055-0.559,1.881-1.674,2.477
		C265.647,76.868,259.745,75.836,256.794,74.257 M304.563,80.436V56.154c0-0.95,0.007-1.864,0.017-2.743h-6.61V63.85h-10.097v-2.627
		c0-1.344,0.014-4.528,0.043-7.811h-6.639v27.023h6.595V68.746h10.097v11.69H304.563L304.563,80.436z M309.912,80.436h-0.147v0.005
		h10.993c14.674,0,15.041-18.105,0.762-17.531c-2.181,0.088-3.548,2.171-3.566,3.818c10.599-1.078,10.033,9.75,1.814,9.689h-3.724
		l0.109-23.005h-6.226L309.912,80.436L309.912,80.436z M197.108,66.946l-0.001,0.045c-3.751,0.701-4.943,1.59-7.458,6.047
		l-4.13,7.32l3.036,0.076c5.683-0.158,5.921-3.283,8.955-7.972c0.9-1.392,1.588-2.34,2.086-2.828s0.7-0.733,1.18-0.733h0.463
		l-0.009,11.534h6.756l-0.008-11.534h0.463c0.48,0,0.683,0.245,1.18,0.733c0.499,0.489,1.187,1.437,2.086,2.828
		c3.034,4.688,3.271,7.813,8.955,7.972l3.037-0.076l-4.13-7.32c-2.516-4.457-3.708-5.347-7.458-6.047l-0.001-0.044l0.001-0.045
		c3.751-0.701,4.942-1.589,7.458-6.048l4.131-7.319l-3.037-0.076c-5.683,0.159-5.921,3.283-8.955,7.972
		c-0.9,1.392-1.588,2.34-2.086,2.828c-0.498,0.489-0.699,0.733-1.18,0.733h-0.463l0.008-11.534h-6.755l0.009,11.534h-0.463
		c-0.48,0-0.682-0.245-1.18-0.733c-0.498-0.489-1.187-1.437-2.086-2.828c-3.034-4.688-3.272-7.813-8.955-7.972l-3.036,0.076
		l4.13,7.32c2.516,4.458,3.708,5.347,7.458,6.048v0.045L197.108,66.946z"/>
	<path fill="#00ACED" d="M184.763,95.884l-1.669-3.777c-0.084-0.2-0.138-0.35-0.162-0.449l-1.163,0.034l-0.011,0.576l-0.299,3.375
		c-0.076,0.813-0.172,1.462-0.288,1.945h0.99l0.035-1.013l0.253-3.386l2.026,4.503h0.369l1.957-4.503l0.288,3.443
		c0.03,0.361,0.054,0.68,0.069,0.956h1.14l-0.035-0.208c-0.022-0.131-0.055-0.356-0.098-0.68c-0.042-0.322-0.083-0.675-0.12-1.059
		l-0.357-3.616c-0.015-0.139-0.019-0.261-0.012-0.368l-1.117,0.012l-0.15,0.438l-1.646,3.776H184.763z M194.148,94.087
		c0-0.314-0.035-0.613-0.104-0.894c-0.069-0.279-0.176-0.543-0.322-0.788c-0.146-0.245-0.354-0.44-0.627-0.587
		c-0.272-0.146-0.589-0.22-0.95-0.22c-0.713,0-1.318,0.311-1.813,0.928c-0.495,0.618-0.743,1.346-0.743,2.182
		c0,0.944,0.24,1.684,0.72,2.217s1.092,0.8,1.836,0.8c0.314,0,0.641-0.064,0.979-0.195s0.564-0.236,0.679-0.317
		c0.115-0.08,0.204-0.146,0.265-0.201l-0.299-0.46l-0.172,0.092c-0.116,0.062-0.278,0.12-0.49,0.179
		c-0.211,0.058-0.413,0.086-0.604,0.086c-0.33,0-0.616-0.068-0.858-0.206c-0.242-0.139-0.428-0.327-0.558-0.565
		c-0.13-0.237-0.227-0.483-0.288-0.736c-0.061-0.253-0.096-0.522-0.104-0.806l3.42-0.138L194.148,94.087L194.148,94.087z
		 M190.704,93.937c0.077-0.491,0.245-0.881,0.506-1.168c0.261-0.288,0.564-0.433,0.91-0.433c0.208,0,0.386,0.052,0.536,0.155
		c0.149,0.104,0.26,0.237,0.334,0.397c0.073,0.161,0.124,0.314,0.154,0.461c0.032,0.146,0.047,0.292,0.047,0.438L190.704,93.937
		L190.704,93.937z M196.519,96.828c0.238-0.528,0.422-1.155,0.553-1.877c0.123-0.606,0.261-1.439,0.415-2.499l1.613-0.022v3.086
		c0,0.399-0.008,0.837-0.023,1.313H196.519L196.519,96.828z M200.135,93.396c0-0.645,0.012-1.213,0.035-1.704l-0.898,0.012
		c-0.176,0-0.572-0.002-1.186-0.006c-0.614-0.004-1.029-0.006-1.244-0.006c-0.107,0-0.172,0.022-0.195,0.068
		c-0.023,0.047-0.05,0.188-0.081,0.426c-0.077,0.606-0.226,1.456-0.449,2.546c-0.199,0.951-0.411,1.615-0.633,1.992
		c-0.046,0.076-0.096,0.115-0.15,0.115c-0.153,0-0.33-0.005-0.529-0.012l-0.023,0.024l-0.058,2.29l0.91-0.149
		c0.039-0.469,0.077-0.883,0.115-1.244c0.008-0.068,0.027-0.109,0.058-0.12c0.03-0.012,0.134-0.018,0.311-0.018l3.305,0.012
		c0.269,0.008,0.421,0.013,0.46,0.017c0.039,0.005,0.058,0.029,0.058,0.075l-0.035,1.428l0.968-0.161
		c0.03-0.807,0.064-1.517,0.104-2.13l-0.035-0.035l-0.794,0.012L200.135,93.396L200.135,93.396z M205.961,95.515v0.501
		c0,0.165-0.001,0.313-0.005,0.449l-0.011,0.385c-0.003,0.123-0.007,0.228-0.011,0.316c-0.004,0.088-0.008,0.165-0.012,0.23
		c-0.004,0.064-0.005,0.112-0.005,0.144v0.046h1.117l-0.035-0.921V93.36c0-0.645,0.012-1.212,0.035-1.704l-1.071,0.034l-2.682,4.491
		V93.36c0-0.645,0.016-1.212,0.046-1.703l-1.128,0.034l0.046,0.91v3.413c0,0.165-0.001,0.314-0.005,0.449l-0.011,0.386
		c-0.003,0.123-0.008,0.229-0.012,0.316l-0.011,0.23c-0.004,0.064-0.006,0.113-0.006,0.144v0.046h1.083l2.682-4.455v2.386
		L205.961,95.515z M213.618,96.804l-0.012-0.426v-3.017c0-0.645,0.012-1.213,0.034-1.704l-1.116,0.034l0.045,0.91v3.247
		c0,0.261-0.008,0.58-0.023,0.955h-2.464l-0.011-0.955v-2.487c0-0.645,0.016-1.213,0.046-1.704l-1.128,0.034l0.046,0.911v3.292
		c0,0.646-0.016,1.213-0.046,1.705l3.903-0.024c0.253,0,0.403,0.005,0.449,0.012c0.046,0.008,0.069,0.034,0.069,0.081l-0.034,1.474
		l0.967-0.161c0.031-0.836,0.065-1.554,0.103-2.153l-0.034-0.034L213.618,96.804L213.618,96.804z M219.433,95.515v0.501
		c0,0.165-0.002,0.313-0.006,0.449l-0.012,0.385l-0.012,0.316l-0.011,0.23c-0.004,0.064-0.006,0.112-0.006,0.144v0.046h1.117
		l-0.034-0.921V93.36c0-0.645,0.011-1.212,0.034-1.704l-1.071,0.034l-2.683,4.491V93.36c0-0.645,0.015-1.212,0.045-1.703
		l-1.128,0.034l0.046,0.91v3.413c0,0.165-0.002,0.314-0.005,0.449l-0.012,0.386l-0.011,0.316c-0.004,0.089-0.009,0.165-0.013,0.23
		c-0.003,0.064-0.005,0.113-0.005,0.144v0.046h1.083l2.683-4.455v2.386L219.433,95.515z M227.297,97.587l-0.034-0.922v-3.305
		c0-0.645,0.011-1.212,0.034-1.704l-1.117,0.034l0.046,0.91v1.485h-2.683v-0.726c0-0.645,0.015-1.213,0.046-1.704l-1.128,0.034
		l0.046,0.909v3.414c0,0.165-0.002,0.314-0.006,0.449l-0.011,0.386c-0.004,0.123-0.009,0.228-0.012,0.316
		c-0.004,0.089-0.007,0.165-0.012,0.23c-0.004,0.064-0.005,0.113-0.005,0.144v0.046h1.128l-0.046-0.921v-1.808h2.683v1.156
		c0,0.165-0.002,0.313-0.005,0.448l-0.012,0.386c-0.004,0.123-0.008,0.228-0.012,0.316c-0.004,0.089-0.008,0.165-0.012,0.23
		s-0.005,0.113-0.005,0.144v0.047h1.117V97.587z M233.262,92.314c0-0.063-0.046-0.145-0.138-0.248
		c-0.093-0.104-0.266-0.207-0.519-0.31c-0.254-0.104-0.549-0.156-0.887-0.156c-0.776,0-1.432,0.295-1.969,0.887
		c-0.538,0.591-0.806,1.32-0.806,2.188c0,0.944,0.226,1.688,0.68,2.233c0.453,0.545,1.043,0.817,1.773,0.817
		c0.329,0,0.658-0.073,0.984-0.219c0.327-0.146,0.542-0.261,0.651-0.346c0.107-0.084,0.188-0.157,0.241-0.219l-0.333-0.495
		l-0.161,0.104c-0.107,0.077-0.261,0.154-0.461,0.23c-0.199,0.077-0.396,0.116-0.587,0.116c-0.492,0-0.895-0.224-1.208-0.669
		c-0.315-0.446-0.473-1.041-0.473-1.784c0-0.567,0.127-1.062,0.381-1.48c0.253-0.418,0.617-0.627,1.093-0.627
		c0.215,0,0.408,0.051,0.582,0.155c0.172,0.104,0.28,0.187,0.323,0.247c0.042,0.063,0.075,0.112,0.098,0.15l0.185-0.082
		c0.122-0.053,0.245-0.127,0.368-0.223c0.121-0.096,0.183-0.187,0.183-0.271L233.262,92.314z M236.946,94.547v-0.011l0.07-0.022
		c0.062-0.023,0.125-0.062,0.189-0.115c0.065-0.054,0.153-0.148,0.265-0.282l0.288-0.356l0.408-0.524l1.209-1.578l-1.243,0.034
		l-1.21,1.67l-0.312,0.426c-0.045,0.063-0.116,0.146-0.212,0.254c-0.097,0.107-0.179,0.174-0.248,0.201
		c-0.068,0.027-0.146,0.041-0.23,0.041h-0.184v-0.921c0-0.646,0.011-1.213,0.034-1.704l-1.105,0.034l0.034,0.91v3.412
		c0,0.165-0.002,0.313-0.006,0.449l-0.011,0.386c-0.005,0.123-0.006,0.228-0.006,0.316c0,0.088-0.003,0.164-0.007,0.229
		c-0.004,0.064-0.006,0.113-0.006,0.144v0.046h1.105l-0.034-0.921v-1.796h0.334c0.223,0,0.424,0.113,0.604,0.339
		c0.181,0.226,0.508,0.739,0.984,1.537l0.519,0.876l1.256-0.069l-0.117-0.15c-0.076-0.099-0.201-0.284-0.373-0.552l-0.559-0.898
		c-0.253-0.415-0.481-0.735-0.686-0.962c-0.203-0.227-0.349-0.357-0.438-0.392c-0.088-0.035-0.182-0.052-0.282-0.052h-0.032V94.547z
		 M244.42,95.515v0.501c0,0.165-0.002,0.313-0.006,0.449l-0.012,0.386c-0.003,0.122-0.008,0.228-0.011,0.315l-0.012,0.23
		c-0.005,0.064-0.006,0.113-0.006,0.144v0.046h1.116l-0.034-0.921v-3.305c0-0.645,0.011-1.213,0.034-1.704l-1.071,0.034l-2.682,4.49
		V93.36c0-0.645,0.015-1.212,0.045-1.703l-1.129,0.034l0.046,0.91v3.413c0,0.165-0.001,0.314-0.005,0.449l-0.012,0.386l-0.012,0.316
		l-0.011,0.23c-0.005,0.064-0.007,0.113-0.007,0.144v0.046h1.083l2.683-4.455L244.42,95.515L244.42,95.515z M249.866,90.162
		c-0.131,0-0.244-0.047-0.34-0.138c-0.097-0.093-0.169-0.192-0.219-0.3s-0.091-0.234-0.122-0.38
		c-0.029-0.146-0.047-0.247-0.051-0.305s-0.006-0.103-0.006-0.134l-0.726-0.068c-0.192,0-0.31,0.01-0.352,0.028
		c-0.041,0.019-0.063,0.067-0.063,0.144l0.012,0.186c0.009,0.122,0.046,0.27,0.116,0.442c0.068,0.172,0.163,0.348,0.281,0.524
		c0.119,0.176,0.307,0.326,0.564,0.449c0.257,0.122,0.558,0.184,0.904,0.184c0.345,0,0.646-0.064,0.903-0.195
		c0.257-0.132,0.445-0.275,0.563-0.433c0.12-0.157,0.214-0.34,0.283-0.546c0.068-0.207,0.107-0.352,0.115-0.433
		s0.011-0.144,0.011-0.19c0-0.022-0.004-0.042-0.011-0.057c-0.039-0.046-0.318-0.073-0.842-0.081h-0.218l-0.022,0.023
		c-0.009,0.138-0.027,0.288-0.058,0.449c-0.031,0.161-0.109,0.339-0.237,0.535C250.229,90.062,250.066,90.161,249.866,90.162
		L249.866,90.162z M251.213,95.515v0.501c0,0.165-0.002,0.313-0.006,0.449l-0.011,0.386c-0.005,0.122-0.008,0.228-0.012,0.315
		c-0.004,0.089-0.008,0.165-0.011,0.23c-0.004,0.064-0.006,0.113-0.006,0.144v0.046h1.117l-0.035-0.921v-3.305
		c0-0.645,0.012-1.213,0.035-1.704l-1.071,0.034l-2.683,4.49V93.36c0-0.645,0.015-1.212,0.046-1.703l-1.128,0.034l0.046,0.91v3.413
		c0,0.165-0.002,0.314-0.006,0.449l-0.012,0.386c-0.004,0.123-0.009,0.229-0.011,0.316c-0.004,0.089-0.009,0.165-0.013,0.23
		c-0.004,0.064-0.006,0.113-0.006,0.144v0.046h1.083l2.683-4.455L251.213,95.515L251.213,95.515z M261.749,96.804l-0.012-0.425
		v-3.018c0-0.645,0.012-1.213,0.035-1.704l-1.117,0.034l0.045,0.911v3.247c0,0.26-0.007,0.579-0.022,0.954h-2.465l-0.012-0.954
		v-2.487c0-0.646,0.017-1.213,0.047-1.704l-1.129,0.034l0.046,0.91v3.293c0,0.645-0.015,1.213-0.046,1.704l3.904-0.023
		c0.253,0,0.402,0.004,0.448,0.012s0.069,0.034,0.069,0.081l-0.035,1.473l0.968-0.16c0.03-0.837,0.065-1.554,0.104-2.153
		l-0.034-0.034l-0.795,0.012L261.749,96.804z M268.048,94.086c0-0.313-0.034-0.611-0.104-0.892
		c-0.068-0.279-0.177-0.543-0.322-0.789c-0.146-0.245-0.355-0.44-0.628-0.586c-0.273-0.146-0.59-0.22-0.949-0.22
		c-0.715,0-1.318,0.31-1.814,0.928c-0.495,0.617-0.742,1.345-0.742,2.182c0,0.943,0.239,1.683,0.72,2.216
		c0.479,0.533,1.092,0.801,1.836,0.801c0.315,0,0.642-0.064,0.979-0.196c0.339-0.13,0.564-0.235,0.68-0.316s0.203-0.147,0.265-0.202
		l-0.299-0.46l-0.173,0.092c-0.115,0.063-0.277,0.121-0.49,0.179c-0.211,0.059-0.412,0.086-0.604,0.086
		c-0.33,0-0.616-0.068-0.857-0.206c-0.242-0.138-0.428-0.327-0.559-0.565c-0.131-0.237-0.227-0.483-0.288-0.736
		s-0.097-0.521-0.104-0.806l3.42-0.138L268.048,94.086L268.048,94.086z M264.604,93.937c0.077-0.491,0.246-0.88,0.508-1.168
		c0.261-0.288,0.563-0.432,0.909-0.432c0.207,0,0.385,0.051,0.535,0.155c0.149,0.104,0.261,0.236,0.334,0.397
		s0.125,0.313,0.155,0.46s0.046,0.293,0.046,0.438L264.604,93.937z M274.323,97.587l-0.035-0.921v-3.305
		c0-0.645,0.012-1.213,0.035-1.704l-1.117,0.034l0.046,0.91v1.484h-2.683v-0.726c0-0.645,0.015-1.212,0.045-1.704l-1.128,0.034
		l0.046,0.91v3.413c0,0.166-0.002,0.314-0.006,0.45l-0.011,0.385c-0.005,0.123-0.008,0.229-0.012,0.316
		c-0.004,0.089-0.008,0.165-0.011,0.23c-0.004,0.064-0.007,0.113-0.007,0.144v0.046h1.129l-0.046-0.921v-1.808h2.683v1.156
		c0,0.165-0.002,0.314-0.006,0.449l-0.012,0.386c-0.004,0.123-0.008,0.228-0.011,0.316l-0.012,0.229
		c-0.004,0.065-0.006,0.114-0.006,0.145v0.046h1.117V97.587z M280.552,92.441l0.046-0.783l-5.066,0.034l-0.069,0.783l1.992-0.022
		l0.012,3.063v0.501c0,0.165-0.003,0.313-0.006,0.449l-0.012,0.386c-0.004,0.123-0.006,0.228-0.006,0.316
		c0,0.088-0.002,0.164-0.006,0.229c-0.004,0.064-0.006,0.113-0.006,0.144v0.046h1.117l-0.034-0.921V93.36
		c0-0.244,0.004-0.548,0.012-0.908L280.552,92.441L280.552,92.441z M285.677,94.64c0,0.722-0.168,1.288-0.501,1.699
		c-0.334,0.411-0.755,0.615-1.262,0.615c-0.421,0-0.779-0.092-1.07-0.276v-3.741l0.15-0.116c0.107-0.084,0.27-0.167,0.488-0.247
		c0.219-0.081,0.443-0.12,0.674-0.12c0.461,0,0.829,0.178,1.105,0.534C285.538,93.345,285.677,93.895,285.677,94.64z
		 M281.784,95.931c0,1.872-0.011,3.27-0.034,4.189l1.151-0.114l-0.058-0.415c-0.009-0.146-0.009-0.829,0-2.05l0.127,0.034
		c0.092,0.024,0.221,0.047,0.385,0.069c0.166,0.024,0.325,0.034,0.479,0.034c0.821,0,1.52-0.315,2.096-0.949
		c0.575-0.634,0.864-1.434,0.864-2.401c0-0.806-0.194-1.461-0.583-1.968c-0.387-0.508-0.865-0.761-1.433-0.761
		c-0.331,0-0.665,0.077-1.002,0.23c-0.338,0.153-0.563,0.277-0.674,0.369c-0.112,0.092-0.198,0.169-0.26,0.229
		c0-0.345-0.093-0.617-0.276-0.816l-0.968,0.507l0.127,0.322c0.016,0.068,0.029,0.169,0.041,0.3c0.011,0.13,0.019,0.316,0.023,0.558
		c0.004,0.242,0.005,0.47,0.005,0.68c0,0.211-0.001,0.521-0.005,0.927C281.787,95.313,281.785,95.655,281.784,95.931L281.784,95.931
		z"/>
</g>
</svg>
