<?xml version="1.0" encoding="utf-8"?>
<!-- Generator: Adobe Illustrator 13.0.0, SVG Export Plug-In . SVG Version: 6.00 Build 14948)  -->
<!DOCTYPE svg PUBLIC "-//W3C//DTD SVG 1.1//EN" "http://www.w3.org/Graphics/SVG/1.1/DTD/svg11.dtd">
<svg version="1.1" id="Layer_1" xmlns="http://www.w3.org/2000/svg" xmlns:xlink="http://www.w3.org/1999/xlink" x="0px" y="0px"
	 width="90px" height="90px" viewBox="82.5 119 90 90" enable-background="new 82.5 119 90 90" xml:space="preserve">
<g>
	<g transform="translate(14.769231, 0.000000)">
		
			<linearGradient id="SVGID_1_" gradientUnits="userSpaceOnUse" x1="14.2801" y1="259.2695" x2="14.1016" y2="259.4684" gradientTransform="matrix(134.1538 0 0 -78.3975 -1774.5636 20463.6563)">
			<stop  offset="0" style="stop-color:#80C3E6"/>
			<stop  offset="1" style="stop-color:#3380C2"/>
		</linearGradient>
		<path fill="url(#SVGID_1_)" d="M133.409,146.93l13.419-21.47h-32.279l-4.46,7.155L133.409,146.93z"/>
		<path opacity="0.15" enable-background="new    " d="M110.091,132.615l2.284-3.673l21.035,17.988L110.091,132.615z"/>
		
			<linearGradient id="SVGID_2_" gradientUnits="userSpaceOnUse" x1="15.013" y1="261.6074" x2="14.7861" y2="261.6958" gradientTransform="matrix(78.8972 0 0 -133.7526 -1038.9354 35164.1836)">
			<stop  offset="0" style="stop-color:#F38649"/>
			<stop  offset="0.1849" style="stop-color:#F28147"/>
			<stop  offset="0.4091" style="stop-color:#EF7242"/>
			<stop  offset="0.6537" style="stop-color:#EA5A3A"/>
			<stop  offset="0.911" style="stop-color:#E4382E"/>
			<stop  offset="1" style="stop-color:#E12A29"/>
		</linearGradient>
		<path fill="url(#SVGID_2_)" d="M140.506,185.855v-32.277l-6.963-4.353l-14.644,23.13L140.506,185.855z"/>
		<path opacity="0.15" enable-background="new    " d="M118.9,172.354l3.617,2.259l11.026-25.387L118.9,172.354z"/>
		
			<linearGradient id="SVGID_3_" gradientUnits="userSpaceOnUse" x1="14.1458" y1="260.9717" x2="14.3548" y2="261.1317" gradientTransform="matrix(163.9015 0 0 -133.7526 -2232.042 35053.8047)">
			<stop  offset="0" style="stop-color:#42AB4A"/>
			<stop  offset="1" style="stop-color:#ADD155"/>
		</linearGradient>
		<path fill="url(#SVGID_3_)" d="M88.517,119v32.278l7.469,4.352l37.418-8.705L88.517,119z"/>
		
			<linearGradient id="SVGID_4_" gradientUnits="userSpaceOnUse" x1="14.1336" y1="260.957" x2="14.2827" y2="261.3641" gradientTransform="matrix(186.7225 0 0 -109.4425 -2544.8582 28746.3184)">
			<stop  offset="0" style="stop-color:#42AB4A"/>
			<stop  offset="1" style="stop-color:#ADD155"/>
		</linearGradient>
		<path fill="url(#SVGID_4_)" d="M95.829,158.091L82.41,179.197h32.277l18.858-29.972L95.829,158.091z"/>
	</g>
	<path d="M92.519,206.542h1.877l0.938-11.461h-1.922v-2.212h5.161l3.529,8.96c0.268,0.781,0.38,1.317,0.38,1.317h0.044
		c0,0,0.112-0.536,0.402-1.317l3.508-8.96h5.16v2.212h-1.898l0.916,11.461h1.877v2.189h-6.502v-2.189h1.765l-0.581-7.997
		c-0.044-0.56,0.068-1.475,0.068-1.475h-0.068c0,0-0.179,0.87-0.379,1.407l-3.039,7.305h-2.502l-3.039-7.305
		c-0.201-0.537-0.356-1.407-0.356-1.407h-0.09c0,0,0.111,0.914,0.067,1.475l-0.581,7.997h1.787v2.189h-6.523L92.519,206.542
		L92.519,206.542z M121.812,192.601c4.691,0,8.221,3.553,8.221,8.089c0,4.67-3.529,8.311-8.221,8.311
		c-4.692,0-8.222-3.641-8.222-8.311C113.59,196.152,117.119,192.601,121.812,192.601z M121.812,206.43
		c2.86,0,5.207-2.479,5.207-5.741c0-3.128-2.347-5.52-5.207-5.52s-5.206,2.392-5.206,5.52
		C116.605,203.951,118.952,206.43,121.812,206.43z M131.488,206.542h1.897v-11.461h-1.897v-2.212h6.858
		c1.275,0,2.279,0.067,3.308,0.379c3.082,0.916,5.138,3.643,5.138,7.551c0,3.754-1.899,6.457-4.915,7.463
		c-1.073,0.379-2.188,0.468-3.509,0.468h-6.88V206.542z M138.235,206.387c1.005,0,1.81-0.09,2.591-0.404
		c1.811-0.737,2.949-2.591,2.949-5.183c0-2.682-1.206-4.513-3.061-5.228c-0.804-0.313-1.542-0.356-2.479-0.356h-1.923v11.171
		H138.235L138.235,206.387z M148.475,206.542h1.408l3.999-5.854l-3.889-5.607h-1.408v-2.212h5.989v2.212h-1.564l2.189,3.284
		c0.292,0.356,0.447,0.67,0.447,0.67h0.044c0,0.022,0.155-0.291,0.425-0.67l2.122-3.284h-1.52v-2.212h5.765v2.212h-1.386
		l-4.021,5.83l3.954,5.631h1.407v2.189h-6.01v-2.189h1.563l-2.212-3.329c-0.29-0.379-0.446-0.691-0.446-0.691h-0.044
		c-0.045,0-0.18,0.313-0.424,0.691l-2.123,3.329h1.541v2.189h-5.807L148.475,206.542z"/>
</g>
</svg>
