<?xml version="1.0" encoding="utf-8"?>
<!-- Generator: Adobe Illustrator 13.0.0, SVG Export Plug-In . SVG Version: 6.00 Build 14948)  -->
<!DOCTYPE svg PUBLIC "-//W3C//DTD SVG 1.1//EN" "http://www.w3.org/Graphics/SVG/1.1/DTD/svg11.dtd">
<svg version="1.1" id="Layer_1" xmlns="http://www.w3.org/2000/svg" xmlns:xlink="http://www.w3.org/1999/xlink" x="0px" y="0px"
	 width="90px" height="90px" viewBox="54.5 54.5 90 90" enable-background="new 54.5 54.5 90 90" xml:space="preserve">
<g>
	<path fill="#CD6799" d="M131.997,104.554c-3.14,0.016-5.869,0.771-8.153,1.89c-0.839-1.66-1.678-3.14-1.825-4.225
		c-0.164-1.266-0.361-2.039-0.164-3.551c0.196-1.512,1.085-3.666,1.068-3.83c-0.017-0.165-0.197-0.937-2.006-0.954
		s-3.37,0.345-3.551,0.822c-0.181,0.477-0.525,1.562-0.756,2.68c-0.313,1.644-3.616,7.513-5.507,10.587
		c-0.608-1.2-1.135-2.252-1.25-3.091c-0.164-1.266-0.361-2.038-0.164-3.551c0.197-1.513,1.085-3.667,1.068-3.831
		c-0.017-0.165-0.197-0.937-2.005-0.954c-1.809-0.017-3.37,0.345-3.552,0.822c-0.181,0.477-0.378,1.595-0.756,2.68
		c-0.378,1.085-4.767,10.883-5.918,13.415c-0.592,1.299-1.101,2.335-1.463,3.041l0,0c0,0-0.017,0.05-0.066,0.132
		c-0.313,0.608-0.493,0.937-0.493,0.937s0,0,0,0.017c-0.247,0.444-0.509,0.854-0.641,0.854c-0.099,0-0.279-1.183,0.033-2.794
		c0.658-3.403,2.22-8.696,2.203-8.877c0-0.099,0.296-1.02-1.019-1.496c-1.282-0.477-1.743,0.313-1.858,0.313
		s-0.197,0.279-0.197,0.279s1.43-5.952-2.729-5.952c-2.597,0-6.181,2.844-7.956,5.409c-1.118,0.608-3.501,1.907-6.049,3.305
		c-0.97,0.543-1.973,1.085-2.91,1.595c-0.065-0.065-0.131-0.148-0.197-0.214c-5.03-5.376-14.334-9.173-13.94-16.39
		c0.148-2.63,1.052-9.535,17.869-17.918c13.841-6.822,24.855-4.932,26.763-0.739c2.729,5.983-5.901,17.096-20.204,18.707
		c-5.458,0.608-8.318-1.496-9.042-2.285c-0.756-0.822-0.871-0.872-1.15-0.707c-0.46,0.247-0.165,0.986,0,1.414
		c0.427,1.118,2.186,3.091,5.162,4.061c2.63,0.855,9.025,1.332,16.768-1.66c8.664-3.354,15.436-12.674,13.447-20.483
		c-1.989-7.924-15.14-10.538-27.584-6.115c-7.398,2.63-15.42,6.772-21.19,12.165c-6.855,6.411-7.94,11.984-7.496,14.318
		c1.595,8.285,13.02,13.678,17.59,17.673c-0.23,0.131-0.444,0.246-0.625,0.345c-2.285,1.134-10.998,5.688-13.167,10.504
		c-2.466,5.458,0.395,9.37,2.285,9.896c5.869,1.628,11.902-1.299,15.141-6.131c3.238-4.834,2.844-11.113,1.348-13.99
		c-0.017-0.032-0.033-0.066-0.066-0.099c0.592-0.346,1.2-0.707,1.792-1.052c1.167-0.69,2.317-1.332,3.304-1.858
		c-0.559,1.529-0.97,3.354-1.167,5.984c-0.247,3.091,1.02,7.102,2.68,8.68c0.74,0.69,1.611,0.707,2.17,0.707
		c1.94,0,2.811-1.611,3.781-3.518c1.184-2.335,2.252-5.048,2.252-5.048s-1.332,7.332,2.285,7.332c1.315,0,2.646-1.71,3.239-2.58
		c0,0.016,0,0.016,0,0.016s0.033-0.049,0.099-0.164c0.131-0.214,0.213-0.346,0.213-0.346s0-0.016,0-0.032
		c0.526-0.921,1.71-3.009,3.469-6.478c2.269-4.471,4.455-10.061,4.455-10.061s0.197,1.364,0.871,3.633
		c0.395,1.332,1.217,2.795,1.874,4.209c-0.526,0.74-0.854,1.15-0.854,1.15s0,0,0.017,0.017c-0.428,0.559-0.888,1.167-1.397,1.759
		c-1.792,2.138-3.93,4.586-4.225,5.293c-0.346,0.839-0.264,1.447,0.395,1.94c0.477,0.361,1.331,0.411,2.202,0.361
		c1.611-0.115,2.745-0.509,3.305-0.756c0.871-0.313,1.89-0.789,2.844-1.496c1.759-1.299,2.828-3.156,2.729-5.605
		c-0.049-1.349-0.493-2.696-1.035-3.962c0.164-0.23,0.313-0.46,0.477-0.69c2.778-4.06,4.932-8.516,4.932-8.516
		s0.197,1.365,0.871,3.634c0.329,1.15,1.003,2.399,1.595,3.616c-2.613,2.121-4.225,4.587-4.8,6.197
		c-1.036,2.992-0.23,4.34,1.298,4.652c0.69,0.147,1.678-0.181,2.4-0.493c0.921-0.296,2.006-0.806,3.041-1.562
		c1.76-1.299,3.452-3.107,3.354-5.557c-0.049-1.117-0.345-2.219-0.756-3.288c2.219-0.92,5.079-1.43,8.729-1.003
		c7.825,0.921,9.371,5.804,9.075,7.858c-0.297,2.055-1.94,3.173-2.482,3.518c-0.543,0.346-0.724,0.461-0.674,0.707
		c0.065,0.362,0.328,0.346,0.789,0.279c0.641-0.115,4.109-1.66,4.257-5.44C144.737,109.78,140.134,104.504,131.997,104.554z
		 M71.633,124.904c-2.597,2.828-6.213,3.896-7.775,2.992c-1.677-0.97-1.019-5.146,2.17-8.137c1.94-1.825,4.438-3.519,6.099-4.554
		c0.378-0.23,0.937-0.56,1.611-0.971c0.115-0.065,0.181-0.099,0.181-0.099l0,0c0.132-0.082,0.263-0.164,0.395-0.247
		C75.48,118.164,74.362,121.929,71.633,124.904z M90.538,112.05c-0.904,2.202-2.794,7.841-3.945,7.528
		c-0.986-0.263-1.594-4.537-0.197-8.762c0.707-2.121,2.203-4.652,3.074-5.639c1.414-1.578,2.975-2.104,3.354-1.463
		C93.3,104.554,91.097,110.668,90.538,112.05z M106.139,119.512c-0.378,0.198-0.739,0.329-0.904,0.23
		c-0.115-0.065,0.165-0.328,0.165-0.328s1.956-2.104,2.729-3.059c0.443-0.558,0.97-1.216,1.529-1.955c0,0.065,0,0.147,0,0.214
		C109.657,117.129,107.224,118.822,106.139,119.512z M118.172,116.767c-0.279-0.197-0.23-0.854,0.707-2.909
		c0.361-0.806,1.217-2.153,2.68-3.452c0.164,0.526,0.279,1.035,0.263,1.513C121.805,115.091,119.536,116.274,118.172,116.767z"/>
</g>
</svg>
