<?xml version="1.0" encoding="utf-8"?>
<!-- Generator: Adobe Illustrator 13.0.0, SVG Export Plug-In . SVG Version: 6.00 Build 14948)  -->
<!DOCTYPE svg PUBLIC "-//W3C//DTD SVG 1.1//EN" "http://www.w3.org/Graphics/SVG/1.1/DTD/svg11.dtd">
<svg version="1.1" id="Layer_1" xmlns="http://www.w3.org/2000/svg" xmlns:xlink="http://www.w3.org/1999/xlink" x="0px" y="0px"
	 width="50px" height="50px" viewBox="230.5 230.5 50 50" enable-background="new 230.5 230.5 50 50" xml:space="preserve">
<g>
	<g>
		<path fill="#BDBDBD" d="M230.5,255.5c0,13.77,11.188,25,25,25s25-11.23,25-25s-11.23-25-25-25S230.5,241.73,230.5,255.5z
			 M276.971,255.5c0,11.833-9.639,21.472-21.472,21.472s-21.472-9.639-21.472-21.472s9.639-21.472,21.472-21.472
			S276.971,243.667,276.971,255.5z"/>
		<path fill="#BDBDBD" d="M243.021,249.734c-0.344,0.345-0.517,0.775-0.517,1.248c0,0.43,0.173,0.904,0.517,1.248l11.359,11.36
			c0.345,0.344,0.775,0.516,1.248,0.516c0.474,0,0.904-0.172,1.248-0.516l11.359-11.36c0.689-0.688,0.689-1.808,0-2.496
			c-0.688-0.688-1.807-0.688-2.496,0l-10.111,10.112l-10.111-10.112C244.829,249.046,243.71,249.046,243.021,249.734
			L243.021,249.734z"/>
	</g>
</g>
</svg>
