<?xml version="1.0" encoding="utf-8"?>
<!-- Generator: Adobe Illustrator 13.0.0, SVG Export Plug-In . SVG Version: 6.00 Build 14948)  -->
<!DOCTYPE svg PUBLIC "-//W3C//DTD SVG 1.1//EN" "http://www.w3.org/Graphics/SVG/1.1/DTD/svg11.dtd">
<svg version="1.1" id="Layer_1" xmlns="http://www.w3.org/2000/svg" xmlns:xlink="http://www.w3.org/1999/xlink" x="0px" y="0px"
	 width="90px" height="90px" viewBox="117 179.5 90 90" enable-background="new 117 179.5 90 90" xml:space="preserve">
<g>
	<polygon fill="#EFC725" points="136.428,244.57 130.627,179.5 194.374,179.5 188.566,244.56 162.461,251.797 	"/>
	<polygon fill="#FBDE34" points="162.447,246.185 183.541,240.336 188.504,184.74 162.447,184.74 	"/>
	<polygon fill="#EBEBEB" points="162.434,229.604 162.4,229.615 153.512,227.215 152.943,220.851 148.625,220.851 144.932,220.851 
		146.051,233.381 162.398,237.919 162.434,237.908 	"/>
	<polygon fill="#EBEBEB" points="163.51,216.855 163.51,208.876 153.682,208.876 154.835,196.351 163.532,196.119 163.51,187.82 
		147.619,187.82 147.03,193.703 145.154,214.713 144.959,216.855 147.11,216.855 	"/>
	<polygon fill="#FFFFFF" points="163.456,196.13 163.49,196.12 172.207,196.645 172.946,204.885 177.264,204.885 180.958,204.885 
		179.561,189.466 163.492,187.816 163.456,187.827 	"/>
	<polyline fill="#FFFFFF" points="180.135,196.155 179.451,187.82 162.605,187.82 162.605,192.996 162.605,196.134 162.605,196.155 
		180.135,196.155 	"/>
	<polygon fill="#FFFFFF" points="162.407,208.879 162.407,216.859 172.234,216.859 171.307,227.209 162.407,229.612 
		162.407,237.915 178.767,233.381 178.887,232.032 180.762,211.022 180.958,208.879 178.806,208.879 	"/>
	<path fill="#FFFFFF" d="M179.109,195.801"/>
	<path fill="#FFFFFF" d="M179.005,195.801"/>
</g>
<g>
	<polygon fill="#151515" points="173.74,260.688 168.449,260.688 173.951,266.658 173.951,269.5 162.618,269.5 162.618,266.172 
		168.119,266.172 162.618,260.202 162.618,257.355 173.74,257.355 	"/>
	<path fill="#020202" d="M160.599,257.361v12.133h-9.76v-4.01h5.704v-8.123H160.599L160.599,257.361z"/>
</g>
</svg>
