<?xml version="1.0" encoding="utf-8"?>
<!-- Generator: Adobe Illustrator 13.0.0, SVG Export Plug-In . SVG Version: 6.00 Build 14948)  -->
<svg version="1.2" baseProfile="tiny" id="Layer_1" xmlns="http://www.w3.org/2000/svg" xmlns:xlink="http://www.w3.org/1999/xlink"
	 x="0px" y="0px" width="20px" height="18.371px" viewBox="0 0 20 18.371" xml:space="preserve">
<g>
	<g>
		<path fill="#FFFFFF" d="M18.239,18.371H1.76c-0.972,0-1.76-0.789-1.76-1.76c0-0.973,0.788-1.762,1.76-1.762h16.479
			c0.973,0,1.761,0.789,1.761,1.762C20,17.582,19.212,18.371,18.239,18.371z M18.239,10.945H1.76c-0.972,0-1.76-0.788-1.76-1.76
			c0-0.972,0.788-1.76,1.76-1.76h16.479c0.973,0,1.761,0.788,1.761,1.76C20,10.157,19.212,10.945,18.239,10.945z M18.239,3.52H1.76
			C0.788,3.52,0,2.732,0,1.76C0,0.788,0.788,0,1.76,0h16.479C19.212,0,20,0.788,20,1.76C20,2.732,19.212,3.52,18.239,3.52z"/>
	</g>
</g>
</svg>
